<?xml version="1.0" standalone="no"?>
<!DOCTYPE svg PUBLIC "-//W3C//DTD SVG 20010904//EN"
 "http://www.w3.org/TR/2001/REC-SVG-20010904/DTD/svg10.dtd">
<svg version="1.0" xmlns="http://www.w3.org/2000/svg"
 width="199.000000pt" height="199.000000pt" viewBox="0 0 199.000000 199.000000"
 preserveAspectRatio="xMidYMid meet">
<metadata>
Created by potrace 1.11, written by Peter Selinger 2001-2013
</metadata>
<g transform="translate(0.000000,199.000000) scale(0.100000,-0.100000)"
fill="#000000" stroke="none">
<path d="M77 1883 c-25 -28 -21 -43 18 -83 l34 -35 112 -580 c61 -319 118
-592 125 -608 8 -15 29 -37 47 -47 31 -19 55 -20 663 -20 599 0 632 1 647 18
23 25 21 55 -2 77 -19 16 -56 17 -644 10 l-623 -8 -12 65 c-7 36 -12 70 -12
77 0 8 166 11 625 11 673 0 675 0 709 52 8 12 49 182 91 376 82 381 83 403 34
448 -20 18 -52 19 -832 24 l-812 5 -11 60 c-22 126 -44 161 -105 171 -26 4
-39 1 -52 -13z m1750 -330 c-2 -5 -12 -43 -21 -85 l-17 -78 -569 0 c-504 0
-570 -2 -584 -16 -21 -20 -20 -53 1 -76 15 -17 46 -18 571 -18 l554 0 -6 -37
c-4 -21 -12 -55 -17 -75 l-10 -38 -426 0 c-383 0 -428 -2 -445 -17 -22 -20
-23 -56 -2 -77 13 -14 67 -16 431 -16 l416 0 -7 -42 c-4 -24 -11 -60 -17 -80
l-10 -38 -625 0 c-526 0 -625 2 -630 14 -3 8 -36 162 -73 343 l-67 328 141 5
c223 9 1417 11 1412 3z"/>
<path d="M646 1114 c-34 -34 -9 -94 39 -94 48 0 73 60 39 94 -8 9 -26 16 -39
16 -13 0 -31 -7 -39 -16z"/>
<path d="M949 426 c-48 -23 -28 -106 26 -106 44 0 70 57 43 92 -19 23 -42 28
-69 14z"/>
<path d="M530 419 c-81 -33 -137 -161 -100 -230 10 -18 7 -19 -43 -19 -29 0
-58 -5 -65 -12 -18 -18 -15 -75 4 -82 9 -3 86 -6 172 -6 144 0 160 2 197 23
114 65 114 246 -1 313 -44 26 -117 31 -164 13z m136 -113 c60 -51 21 -146 -58
-146 -79 0 -117 86 -63 144 32 34 83 35 121 2z"/>
<path d="M1085 410 c-15 -16 -17 -26 -9 -48 l9 -27 157 -3 157 -3 -11 -30 c-6
-17 -8 -53 -6 -80 l5 -49 -38 0 c-30 0 -42 -6 -55 -25 -15 -23 -15 -27 1 -51
l16 -25 152 3 c166 3 209 16 250 69 44 59 37 170 -14 226 -53 58 -81 63 -350
63 -235 0 -247 -1 -264 -20z m527 -91 c11 -6 26 -26 34 -45 13 -31 13 -39 -1
-68 -41 -87 -165 -57 -165 39 0 60 77 103 132 74z"/>
</g>
</svg>
